<?xml version="1.0" encoding="UTF-8" standalone="no"?>
<!-- Generator: Adobe Illustrator 16.0.0, SVG Export Plug-In . SVG Version: 6.00 Build 0)  -->

<svg
   xmlns:dc="http://purl.org/dc/elements/1.1/"
   xmlns:cc="http://creativecommons.org/ns#"
   xmlns:rdf="http://www.w3.org/1999/02/22-rdf-syntax-ns#"
   xmlns:svg="http://www.w3.org/2000/svg"
   xmlns="http://www.w3.org/2000/svg"
   xmlns:sodipodi="http://sodipodi.sourceforge.net/DTD/sodipodi-0.dtd"
   xmlns:inkscape="http://www.inkscape.org/namespaces/inkscape"
   version="1.1"
   x="0px"
   y="0px"
   width="81.626579"
   height="70.691582"
   viewBox="0 0 81.626577 70.691582"
   xml:space="preserve"
   id="svg2"
   inkscape:version="0.91 r13725"
   sodipodi:docname="logo.svg"><metadata
     id="metadata16"><rdf:RDF><cc:Work
         rdf:about=""><dc:format>image/svg+xml</dc:format><dc:type
           rdf:resource="http://purl.org/dc/dcmitype/StillImage" /><dc:title></dc:title></cc:Work></rdf:RDF></metadata><defs
     id="defs14" /><sodipodi:namedview
     pagecolor="#ffffff"
     bordercolor="#666666"
     borderopacity="1"
     objecttolerance="10"
     gridtolerance="10"
     guidetolerance="10"
     inkscape:pageopacity="0"
     inkscape:pageshadow="2"
     inkscape:window-width="1920"
     inkscape:window-height="1016"
     id="namedview12"
     showgrid="false"
     fit-margin-top="0"
     fit-margin-left="0"
     fit-margin-right="0"
     fit-margin-bottom="0"
     inkscape:zoom="3.7369282"
     inkscape:cx="-35.34209"
     inkscape:cy="84.358908"
     inkscape:window-x="0"
     inkscape:window-y="27"
     inkscape:window-maximized="1"
     inkscape:current-layer="svg2" /><style
     type="text/css"
     id="style4"><![CDATA[
	.st0{fill:#FFFFFF;}
	.st1{display:none;}
	.st2{display:inline;fill:#461670;stroke:#000000;stroke-miterlimit:10;}
]]></style><g
     id="Layer_1"
     class="st1"
     style="display:none"
     transform="translate(-88.614448,-87.787109)"><rect
       x="-0.5"
       y="0.5"
       class="st2"
       width="1402"
       height="1280"
       id="rect7"
       style="display:inline;fill:#461670;stroke:#000000;stroke-miterlimit:10" /></g><path
     style="color:#000000;font-style:normal;font-variant:normal;font-weight:normal;font-stretch:normal;font-size:medium;line-height:normal;font-family:sans-serif;text-indent:0;text-align:start;text-decoration:none;text-decoration-line:none;text-decoration-style:solid;text-decoration-color:#000000;letter-spacing:normal;word-spacing:normal;text-transform:none;direction:ltr;block-progression:tb;writing-mode:lr-tb;baseline-shift:baseline;text-anchor:start;white-space:normal;clip-rule:nonzero;display:inline;overflow:visible;visibility:visible;opacity:0.98999999;isolation:auto;mix-blend-mode:normal;color-interpolation:sRGB;color-interpolation-filters:linearRGB;solid-color:#000000;solid-opacity:1;fill:#ffffff;fill-opacity:1;fill-rule:nonzero;stroke:#ffffff;stroke-width:1;stroke-linecap:butt;stroke-linejoin:miter;stroke-miterlimit:4;stroke-dasharray:none;stroke-dashoffset:0;stroke-opacity:1;color-rendering:auto;image-rendering:auto;shape-rendering:auto;text-rendering:auto;enable-background:accumulate"
     d="m 0.86602086,0.5 39.94726114,69.191411 1.08204,-1.875 L 80.760552,0.5 0.86602086,0.5 Z M 5.1941459,3 30.672662,3 c -6.96934,3.661086 -11.73438,10.967681 -11.73438,19.375001 0,2.00042 0.27455,3.9374 0.7793,5.7793 L 5.1941459,3 Z m 45.7597661,0 25.47656,0 -14.52148,25.150391 c 0.50411,-1.84082 0.77929,-3.77629 0.77929,-5.77539 0,-8.40732 -4.76503,-15.713915 -11.73437,-19.375001 z m -12.37305,0.136719 -15.50586,27.029292 c -1.04663,-2.38434 -1.63672,-5.01631 -1.63672,-7.79101 0,-9.95937 7.4834,-18.133092 17.14258,-19.238282 z m 4.46289,0 c 9.66013,1.104319 17.14453,9.278252 17.14453,19.238282 0,2.7747 -0.59008,5.40667 -1.63671,7.79101 L 43.043752,3.136719 Z m -2.23047,1.125 15.78321,27.513672 -31.56641,0 15.7832,-27.513672 z m 0,16.750002 a 1.3637388,1.3637388 0 0 0 -1.36328,1.36328 1.3637388,1.3637388 0 0 0 1.36328,1.36523 1.3637388,1.3637388 0 0 0 1.36329,-1.36523 1.3637388,1.3637388 0 0 0 -1.36329,-1.36328 z m -15.27148,13.27148 30.54297,0 c -3.54316,4.54048 -9.05433,7.4668 -15.27149,7.4668 -6.21714,0 -11.72832,-2.92632 -15.27148,-7.4668 z m -0.29687,3.44336 c 3.96872,4.02431 9.48003,6.52344 15.56835,6.52344 6.08734,0 11.59783,-2.49833 15.56641,-6.52149 l -15.56641,26.9629 -15.56835,-26.96485 z"
     id="path4173"
     inkscape:connector-curvature="0" /></svg>
